<?xml version="1.0" encoding="UTF-8" standalone="no"?>
<svg
   xmlns:dc="http://purl.org/dc/elements/1.1/"
   xmlns:cc="http://creativecommons.org/ns#"
   xmlns:rdf="http://www.w3.org/1999/02/22-rdf-syntax-ns#"
   xmlns:svg="http://www.w3.org/2000/svg"
   xmlns="http://www.w3.org/2000/svg"
   width="303"
   height="303"
   viewBox="0 0 80.168748 80.168752"
   version="1.1"
   id="svg8">
  <defs
     id="defs2" />
  <metadata
     id="metadata5">
    <rdf:RDF>
      <cc:Work
         rdf:about="">
        <dc:format>image/svg+xml</dc:format>
        <dc:type
           rdf:resource="http://purl.org/dc/dcmitype/StillImage" />
        <dc:title></dc:title>
      </cc:Work>
    </rdf:RDF>
  </metadata>
  <circle
     r="40.084373"
     cy="40.084373"
     cx="40.084373"
     id="path849"
     style="fill:#ffffff;fill-opacity:1;stroke:none;stroke-width:0.79374999;stroke-miterlimit:4;stroke-dasharray:none;stroke-dashoffset:0;stroke-opacity:1" />
  <g
     id="layer1"
     transform="translate(0.39687499,-217.22809)">
    <path
       style="fill:#e7e7f8;fill-opacity:1;stroke:none;stroke-width:0.79374999;stroke-miterlimit:4;stroke-dasharray:none;stroke-dashoffset:0;stroke-opacity:1"
       id="path938"
       d="m 39.687501,296.99997 -1.557813,-9.96267 -2.59066,9.74526 -0.507897,-10.07093 -3.595125,9.42107 0.547583,-10.06884 -4.5602,8.99367 1.597065,-9.95646 -5.475314,8.46774 2.629049,-9.73497 -6.330438,7.84901 3.632228,-9.40683 -7.116205,7.14431 4.595611,-8.97563 -7.824005,6.36133 5.508645,-8.44609 -8.446085,5.50865 6.361325,-7.82401 -8.9756263,4.59562 7.1443073,-7.11621 -9.4068287,3.63223 7.8490167,-6.33044 -9.7349689,2.62905 8.4677299,-5.47531 -9.9564502,1.59706 8.9936692,-4.5602 L 0.86726732,265.56397 10.288339,261.96884 0.21741239,261.46094 9.9626678,258.87028 0,257.31247 9.9626677,255.75466 0.21741217,253.164 10.288339,252.6561 l -9.42107213,-3.59512 10.06884713,0.54758 -8.9936698,-4.5602 9.9564508,1.59706 -8.4677308,-5.47531 9.7349698,2.62905 -7.8490177,-6.33044 9.4068297,3.63223 -7.1443086,-7.11621 8.9756276,4.59561 -6.361326,-7.824 8.446086,5.50864 -5.508647,-8.44608 7.824007,6.36132 -4.595613,-8.97562 7.116207,7.14431 -3.63223,-9.40683 6.33044,7.84901 -2.62905,-9.73497 5.475315,8.46773 -1.597067,-9.95645 4.560202,8.99367 -0.547585,-10.06884 3.595126,9.42107 0.507896,-10.07093 2.590661,9.74526 1.557812,-9.96267 1.557813,9.96267 2.59066,-9.74526 0.507897,10.07093 3.595125,-9.42107 -0.547583,10.06884 4.5602,-8.99367 -1.597065,9.95645 5.475314,-8.46773 -2.629049,9.73497 6.330438,-7.84901 -3.632228,9.40683 7.116205,-7.14431 -4.595611,8.97562 7.824005,-6.36132 -5.508645,8.44608 8.446085,-5.50864 -6.361325,7.824 8.975626,-4.59561 -7.144307,7.11621 9.406829,-3.63223 -7.849017,6.33044 9.734969,-2.62905 -8.46773,5.47531 9.95645,-1.59706 -8.993669,4.5602 10.068847,-0.54759 -9.421072,3.59513 10.070927,0.5079 -9.745256,2.59066 9.962668,1.55781 -9.962668,1.55781 9.745256,2.59066 -10.070927,0.5079 9.421072,3.59512 -10.068847,-0.54758 8.99367,4.5602 -9.956451,-1.59706 8.467731,5.47531 -9.73497,-2.62905 7.849018,6.33044 -9.40683,-3.63223 7.144309,7.11621 -8.975628,-4.59562 6.361326,7.82401 -8.446086,-5.50865 5.508647,8.44609 -7.824007,-6.36133 4.595613,8.97563 -7.116207,-7.14431 3.63223,9.40683 -6.33044,-7.84901 2.62905,9.73496 -5.475315,-8.46773 1.597067,9.95645 -4.560202,-8.99366 0.547585,10.06884 -3.595126,-9.42107 -0.507896,10.07093 -2.590661,-9.74526 z" />
    <rect
       y="163.04485"
       x="162.49176"
       height="3.175"
       width="1.0583333"
       id="rect851"
       style="fill:#ff8080;fill-opacity:1;stroke:none;stroke-width:0.79374999;stroke-miterlimit:4;stroke-dasharray:none;stroke-dashoffset:0;stroke-opacity:1"
       transform="rotate(30)" />
    <rect
       transform="rotate(60)"
       style="fill:#ff8080;fill-opacity:1;stroke:none;stroke-width:0.79374999;stroke-miterlimit:4;stroke-dasharray:none;stroke-dashoffset:0;stroke-opacity:1"
       id="rect853"
       width="1.0583333"
       height="3.175"
       x="242.14386"
       y="54.339481" />
    <rect
       y="-202.96159"
       x="202.45636"
       height="3.175"
       width="1.0583333"
       id="rect855"
       style="fill:#ff8080;fill-opacity:1;stroke:none;stroke-width:0.79374999;stroke-miterlimit:4;stroke-dasharray:none;stroke-dashoffset:0;stroke-opacity:1"
       transform="rotate(120)" />
    <rect
       transform="rotate(150)"
       style="fill:#ff8080;fill-opacity:1;stroke:none;stroke-width:0.79374999;stroke-miterlimit:4;stroke-dasharray:none;stroke-dashoffset:0;stroke-opacity:1"
       id="rect857"
       width="1.0583333"
       height="3.175"
       x="93.750999"
       y="-282.61368" />
    <rect
       y="-242.92618"
       x="-163.55008"
       height="3.175"
       width="1.0583333"
       id="rect859"
       style="fill:#ff8080;fill-opacity:1;stroke:none;stroke-width:0.79374999;stroke-miterlimit:4;stroke-dasharray:none;stroke-dashoffset:0;stroke-opacity:1"
       transform="rotate(-150)" />
    <rect
       transform="rotate(-120)"
       style="fill:#ff8080;fill-opacity:1;stroke:none;stroke-width:0.79374999;stroke-miterlimit:4;stroke-dasharray:none;stroke-dashoffset:0;stroke-opacity:1"
       id="rect861"
       width="1.0583333"
       height="3.175"
       x="-243.20218"
       y="-134.22081" />
    <rect
       y="123.08026"
       x="-203.51468"
       height="3.175"
       width="1.0583333"
       id="rect863"
       style="fill:#ff8080;fill-opacity:1;stroke:none;stroke-width:0.79374999;stroke-miterlimit:4;stroke-dasharray:none;stroke-dashoffset:0;stroke-opacity:1"
       transform="rotate(-60)" />
    <rect
       transform="rotate(-30)"
       style="fill:#ff8080;fill-opacity:1;stroke:none;stroke-width:0.79374999;stroke-miterlimit:4;stroke-dasharray:none;stroke-dashoffset:0;stroke-opacity:1"
       id="rect865"
       width="1.0583333"
       height="3.175"
       x="-94.809319"
       y="202.73236" />
    <circle
       style="fill:#fff8f6;fill-opacity:1;stroke:#e6e6e6;stroke-width:0.79374999;stroke-miterlimit:4;stroke-dasharray:none;stroke-dashoffset:0;stroke-opacity:1"
       id="path847"
       cx="39.6875"
       cy="257.31247"
       r="37.041668" />
    <circle
       style="fill:none;fill-opacity:1;stroke:#000000;stroke-width:0.79374999;stroke-miterlimit:4;stroke-dasharray:none;stroke-dashoffset:0;stroke-opacity:1"
       id="path821"
       cx="39.6875"
       cy="257.31247"
       r="39.6875" />
    <text
       xml:space="preserve"
       style="font-style:normal;font-variant:normal;font-weight:normal;font-stretch:normal;font-size:11.28888893px;line-height:1.25;font-family:'Oxygen Mono';-inkscape-font-specification:'Oxygen Mono';letter-spacing:0px;word-spacing:0px;fill:#000000;fill-opacity:1;stroke:none;stroke-width:0.26458332"
       x="71.972038"
       y="261.72241"
       id="text829"><tspan
         id="tspan827"
         x="71.972038"
         y="261.72241"
         style="stroke-width:0.26458332">3</tspan></text>
    <text
       xml:space="preserve"
       style="font-style:normal;font-variant:normal;font-weight:normal;font-stretch:normal;font-size:11.28888893px;line-height:1.25;font-family:'Oxygen Mono';-inkscape-font-specification:'Oxygen Mono';letter-spacing:0px;word-spacing:0px;fill:#000000;fill-opacity:1;stroke:none;stroke-width:0.26458332"
       x="36.774399"
       y="296.0914"
       id="text833"><tspan
         id="tspan831"
         x="36.774399"
         y="296.0914"
         style="stroke-width:0.26458332">6</tspan></text>
    <text
       xml:space="preserve"
       style="font-style:normal;font-variant:normal;font-weight:normal;font-stretch:normal;font-size:11.28888893px;line-height:1.25;font-family:'Oxygen Mono';-inkscape-font-specification:'Oxygen Mono';letter-spacing:0px;word-spacing:0px;fill:#000000;fill-opacity:1;stroke:none;stroke-width:0.26458332"
       x="0.26726952"
       y="260.92059"
       id="text837"><tspan
         id="tspan835"
         x="0.26726952"
         y="260.92059"
         style="stroke-width:0.26458332">9</tspan></text>
    <text
       xml:space="preserve"
       style="font-style:normal;font-variant:normal;font-weight:normal;font-stretch:normal;font-size:11.28888893px;line-height:1.25;font-family:'Oxygen Mono';-inkscape-font-specification:'Oxygen Mono';letter-spacing:0px;word-spacing:0px;fill:#000000;fill-opacity:1;stroke:none;stroke-width:0.26458332"
       x="32.898991"
       y="226.68462"
       id="text841"><tspan
         id="tspan839"
         x="32.898991"
         y="226.68462"
         style="stroke-width:0.26458332">12</tspan></text>
    <circle
       style="fill:#ff6600;fill-opacity:1;stroke:none;stroke-width:0.79374999;stroke-miterlimit:4;stroke-dasharray:none;stroke-dashoffset:0;stroke-opacity:1"
       id="path869"
       cx="39.6875"
       cy="257.31247"
       r="0.52916664" />
    <circle
       style="fill:#e2a8a8;fill-opacity:1;stroke:none;stroke-width:0.79374999;stroke-miterlimit:4;stroke-dasharray:none;stroke-dashoffset:0;stroke-opacity:1"
       id="path934"
       cx="39.6875"
       cy="218.41873"
       r="0.26458332" />
  </g>
</svg>
